<svg xmlns="http://www.w3.org/2000/svg" xmlns:xlink="http://www.w3.org/1999/xlink" width="500" zoomAndPan="magnify" viewBox="0 0 375 374.999991" height="500" preserveAspectRatio="xMidYMid meet" version="1.0"><defs><clipPath id="id1"><path d="M 207 205 L 351.679688 205 L 351.679688 356.296875 L 207 356.296875 Z M 207 205 " clip-rule="nonzero"/></clipPath><clipPath id="id2"><path d="M 187 10.496094 L 374.34375 10.496094 L 374.34375 198 L 187 198 Z M 187 10.496094 " clip-rule="nonzero"/></clipPath></defs><rect x="-37.5" width="450" fill="#ffffff" y="-37.499999" height="449.999989" fill-opacity="1"/><rect x="-37.5" width="450" fill="#ffffff" y="-37.499999" height="449.999989" fill-opacity="1"/><rect x="-37.5" width="450" fill="#ffffff" y="-37.499999" height="449.999989" fill-opacity="1"/><rect x="-37.5" width="450" fill="#ffffff" y="-37.499999" height="449.999989" fill-opacity="1"/><g clip-path="url(#id1)"><path fill="#000000" d="M 327.25 332.4375 C 323.441406 336.261719 317.125 336.148438 313.171875 332.179688 C 309.207031 328.21875 309.089844 321.898438 312.910156 318.085938 C 316.730469 314.261719 323.035156 314.375 326.992188 318.34375 C 330.957031 322.304688 331.070312 328.613281 327.25 332.4375 Z M 348.007812 313.722656 C 345.644531 311.132812 321.742188 285.605469 258.664062 238.96875 C 242.007812 226.648438 228.257812 215.402344 216.851562 205.039062 L 208.992188 212.90625 C 210.144531 218.710938 209.582031 224.78125 207.390625 230.304688 C 215.648438 239.921875 224.449219 250.992188 233.882812 263.78125 C 280.488281 326.925781 305.976562 350.855469 308.554688 353.21875 C 308.625 353.289062 308.6875 353.382812 308.761719 353.457031 C 314.804688 359.507812 328.554688 355.570312 339.457031 344.65625 C 350.355469 333.734375 354.300781 319.980469 348.253906 313.917969 C 348.171875 313.847656 348.089844 313.792969 348.007812 313.722656 " fill-opacity="1" fill-rule="nonzero"/></g><path fill="#000000" d="M 54.121094 147.707031 C 87.765625 167.691406 112.683594 157.015625 150.75 179.546875 C 155.347656 176.832031 160.597656 175.359375 166.082031 175.359375 C 168.144531 175.359375 170.203125 175.566406 172.191406 175.96875 L 181.570312 166.582031 C 149.777344 122.121094 164.5 95.789062 142.71875 59.019531 C 111.960938 7.128906 58.003906 5.355469 29.015625 30.15625 L 25.289062 33.898438 C 0.503906 62.902344 2.285156 116.917969 54.121094 147.707031 " fill-opacity="1" fill-rule="nonzero"/><path fill="#000000" d="M 62.816406 335.175781 C 59.246094 338.75 53.449219 338.75 49.886719 335.175781 C 46.316406 331.597656 46.316406 325.804688 49.886719 322.230469 C 53.449219 318.65625 59.246094 318.65625 62.816406 322.230469 C 66.378906 325.804688 66.378906 331.597656 62.816406 335.175781 Z M 175.339844 195.234375 C 169.863281 190.394531 161.457031 190.53125 156.21875 195.773438 L 41.480469 310.632812 C 41.429688 310.6875 41.398438 310.738281 41.355469 310.777344 C 40.839844 311.222656 40.320312 311.671875 39.835938 312.167969 C 30.703125 321.296875 30.703125 336.105469 39.835938 345.238281 C 48.957031 354.367188 63.738281 354.367188 72.871094 345.238281 C 73.097656 345.007812 73.304688 344.75 73.511719 344.511719 C 73.84375 344.242188 74.195312 344.015625 74.503906 343.703125 L 189.261719 228.835938 C 194.613281 223.476562 194.664062 214.78125 189.480469 209.320312 C 189.53125 209.277344 175.339844 195.234375 175.339844 195.234375 " fill-opacity="1" fill-rule="nonzero"/><g clip-path="url(#id2)"><path fill="#000000" d="M 343.441406 99.859375 L 303.347656 140.007812 C 297.902344 145.449219 290.914062 147.367188 287.808594 144.269531 C 284.710938 141.160156 286.625 134.164062 292.070312 128.710938 L 332.167969 88.5625 C 337.613281 83.125 344.601562 81.207031 347.707031 84.304688 C 350.800781 87.414062 348.886719 94.410156 343.441406 99.859375 Z M 264.265625 120.691406 C 261.160156 117.582031 263.074219 110.585938 268.519531 105.136719 L 308.617188 64.996094 C 314.0625 59.546875 321.046875 57.628906 324.15625 60.726562 C 327.25 63.835938 325.335938 70.832031 319.898438 76.285156 L 279.792969 116.421875 C 274.347656 121.871094 267.359375 123.789062 264.265625 120.691406 Z M 256.242188 92.855469 C 250.796875 98.296875 243.808594 100.210938 240.714844 97.113281 C 237.609375 94.003906 239.523438 87.007812 244.96875 81.558594 L 285.0625 41.421875 C 290.507812 35.96875 297.496094 34.050781 300.601562 37.160156 C 303.699219 40.261719 301.78125 47.253906 296.347656 52.707031 Z M 369.394531 81.734375 C 358.191406 70.519531 314.371094 26.664062 303.171875 15.4375 C 291.96875 4.226562 280.996094 15.585938 280.996094 15.585938 C 280.996094 15.585938 239.046875 57.578125 225.972656 70.675781 C 212.886719 83.765625 218.074219 95.613281 218.074219 95.613281 L 222.339844 124.289062 L 222.84375 125.8125 C 223.34375 132.019531 223.25 147.96875 211.210938 160.019531 C 204.085938 167.160156 194.945312 176.300781 187.234375 184.023438 L 201.15625 197.640625 C 208.828125 189.949219 217.898438 180.882812 224.96875 173.792969 C 237.007812 161.742188 252.949219 161.65625 259.140625 162.144531 L 260.664062 162.652344 L 289.308594 166.921875 C 289.308594 166.921875 301.140625 172.113281 314.226562 159.027344 C 327.300781 145.925781 369.25 103.933594 369.25 103.933594 C 369.25 103.933594 380.597656 92.949219 369.394531 81.734375 " fill-opacity="1" fill-rule="nonzero"/></g></svg>