<svg xmlns="http://www.w3.org/2000/svg" xmlns:xlink="http://www.w3.org/1999/xlink" width="500" zoomAndPan="magnify" viewBox="0 0 375 374.999991" height="500" preserveAspectRatio="xMidYMid meet" version="1.0"><defs><clipPath id="id1"><path d="M 203 211 L 347.640625 211 L 347.640625 363.027344 L 203 363.027344 Z M 203 211 " clip-rule="nonzero"/></clipPath><clipPath id="id2"><path d="M 183 17.226562 L 370.304688 17.226562 L 370.304688 205 L 183 205 Z M 183 17.226562 " clip-rule="nonzero"/></clipPath></defs><rect x="-37.5" width="450" fill="#ffffff" y="-37.499999" height="449.999989" fill-opacity="1"/><rect x="-37.5" width="450" fill="#000000" y="-37.499999" height="449.999989" fill-opacity="1"/><rect x="-37.5" width="450" fill="#ffffff" y="-37.499999" height="449.999989" fill-opacity="1"/><rect x="-37.5" width="450" fill="#000000" y="-37.499999" height="449.999989" fill-opacity="1"/><g clip-path="url(#id1)"><path fill="#ffffff" d="M 323.210938 339.171875 C 319.402344 342.996094 313.085938 342.882812 309.132812 338.910156 C 305.164062 334.953125 305.050781 328.632812 308.871094 324.816406 C 312.691406 320.992188 318.996094 321.109375 322.953125 325.078125 C 326.917969 329.035156 327.03125 335.347656 323.210938 339.171875 Z M 343.96875 320.453125 C 341.605469 317.863281 317.703125 292.339844 254.625 245.703125 C 237.96875 233.378906 224.21875 222.136719 212.8125 211.773438 L 204.953125 219.636719 C 206.101562 225.441406 205.542969 231.515625 203.347656 237.039062 C 211.609375 246.65625 220.410156 257.722656 229.839844 270.511719 C 276.449219 333.65625 301.9375 357.585938 304.515625 359.949219 C 304.585938 360.023438 304.648438 360.117188 304.722656 360.1875 C 310.765625 366.242188 324.515625 362.300781 335.414062 351.390625 C 346.316406 340.464844 350.261719 326.714844 344.214844 320.652344 C 344.132812 320.578125 344.050781 320.527344 343.96875 320.453125 " fill-opacity="1" fill-rule="nonzero"/></g><path fill="#ffffff" d="M 50.082031 154.441406 C 83.726562 174.421875 108.644531 163.746094 146.710938 186.277344 C 151.308594 183.5625 156.554688 182.089844 162.042969 182.089844 C 164.101562 182.089844 166.164062 182.296875 168.152344 182.703125 L 177.53125 173.3125 C 145.738281 128.855469 160.460938 102.519531 138.679688 65.75 C 107.921875 13.859375 53.964844 12.089844 24.976562 36.886719 L 21.25 40.628906 C -3.535156 69.636719 -1.753906 123.652344 50.082031 154.441406 " fill-opacity="1" fill-rule="nonzero"/><path fill="#ffffff" d="M 58.777344 341.90625 C 55.207031 345.484375 49.410156 345.484375 45.847656 341.90625 C 42.277344 338.332031 42.277344 332.539062 45.847656 328.964844 C 49.410156 325.386719 55.207031 325.386719 58.777344 328.964844 C 62.339844 332.539062 62.339844 338.332031 58.777344 341.90625 Z M 171.296875 201.96875 C 165.820312 197.128906 157.414062 197.261719 152.175781 202.507812 L 37.441406 317.367188 C 37.390625 317.417969 37.359375 317.46875 37.316406 317.511719 C 36.800781 317.957031 36.28125 318.402344 35.796875 318.898438 C 26.664062 328.03125 26.664062 342.839844 35.796875 351.96875 C 44.914062 361.101562 59.699219 361.101562 68.828125 351.96875 C 69.058594 351.742188 69.265625 351.484375 69.472656 351.246094 C 69.804688 350.976562 70.15625 350.746094 70.464844 350.4375 L 185.222656 235.566406 C 190.574219 230.210938 190.625 221.515625 185.441406 216.050781 C 185.492188 216.011719 171.296875 201.96875 171.296875 201.96875 " fill-opacity="1" fill-rule="nonzero"/><g clip-path="url(#id2)"><path fill="#ffffff" d="M 339.402344 106.59375 L 299.304688 146.742188 C 293.859375 152.183594 286.875 154.097656 283.765625 151 C 280.671875 147.890625 282.585938 140.894531 288.03125 135.445312 L 328.128906 95.296875 C 333.574219 89.855469 340.5625 87.9375 343.667969 91.039062 C 346.761719 94.144531 344.847656 101.140625 339.402344 106.59375 Z M 260.226562 127.421875 C 257.121094 124.316406 259.035156 117.320312 264.480469 111.867188 L 304.574219 71.730469 C 310.019531 66.277344 317.007812 64.363281 320.113281 67.460938 C 323.210938 70.570312 321.296875 77.566406 315.859375 83.015625 L 275.753906 123.152344 C 270.308594 128.605469 263.320312 130.523438 260.226562 127.421875 Z M 252.203125 99.585938 C 246.757812 105.027344 239.769531 106.945312 236.675781 103.847656 C 233.570312 100.738281 235.484375 93.742188 240.929688 88.289062 L 281.023438 48.152344 C 286.46875 42.703125 293.457031 40.785156 296.5625 43.894531 C 299.660156 46.992188 297.742188 53.988281 292.308594 59.4375 Z M 365.355469 88.46875 C 354.152344 77.253906 310.332031 33.394531 299.128906 22.171875 C 287.929688 10.957031 276.957031 22.316406 276.957031 22.316406 C 276.957031 22.316406 235.007812 64.308594 221.933594 77.410156 C 208.847656 90.5 214.035156 102.34375 214.035156 102.34375 L 218.296875 131.019531 L 218.804688 132.542969 C 219.300781 138.75 219.210938 154.699219 207.167969 166.753906 C 200.046875 173.894531 190.90625 183.035156 183.195312 190.753906 L 197.117188 204.371094 C 204.789062 196.683594 213.855469 187.613281 220.929688 180.527344 C 232.96875 168.472656 248.910156 168.390625 255.101562 168.878906 L 256.625 169.386719 L 285.269531 173.65625 C 285.269531 173.65625 297.101562 178.847656 310.1875 165.757812 C 323.261719 152.660156 365.210938 110.664062 365.210938 110.664062 C 365.210938 110.664062 376.554688 99.679688 365.355469 88.46875 " fill-opacity="1" fill-rule="nonzero"/></g></svg>